Coordinates
version=1
nRows=10
nColumns=23
inDegrees=yes

Units are S.I. units (second, meters, Newtons, ...)
If the header above contains a line with 'inDegrees', this indicates whether rotational values are in degrees (yes) or radians (no).

endheader
time	pelvis_tilt	pelvis_list	pelvis_rotation	pelvis_tx	pelvis_ty	pelvis_tz	hip_flexion_r	hip_adduction_r	hip_rotation_r	knee_angle_r	knee_angle_r_beta	ankle_angle_r	subtalar_angle_r	mtp_angle_r	hip_flexion_l	hip_adduction_l	hip_rotation_l	knee_angle_l	knee_angle_l_beta	ankle_angle_l	subtalar_angle_l	mtp_angle_l
      7.50000000	     -1.67747856	      1.61380158	      2.97738613	      2.17252714	      1.11732837	      1.00301100	    -21.35990684	     -4.33737433	    -21.81743238	     45.23815855	      0.78955481	    -16.76175690	    -17.35268711	      0.00000000	     27.00223965	      5.95669587	      1.47854815	     18.07825632	      0.31552510	     14.51185421	     10.57784204	      0.00000000
      7.50666667	     -1.18674910	      1.78908343	      3.16581029	      2.17235367	      1.11449578	      1.00263880	    -20.83928415	     -4.54364067	    -20.88923303	     48.95981391	      0.85450995	    -16.80523728	    -18.50930200	      0.00000000	     26.13676809	      6.07308451	      1.12308177	     17.99650754	      0.31409831	     14.07201992	     10.35021970	      0.00000000
      7.51333333	     -0.77059306	      2.01303199	      3.28210328	      2.17187480	      1.11129548	      1.00246387	    -20.06002050	     -4.76303947	    -19.81054512	     52.84845841	      0.92237960	    -16.97498859	    -19.58876467	      0.00000000	     25.45685905	      6.18679674	      0.60633732	     18.38641765	      0.32090353	     13.19425445	      9.66245174	      0.00000000
      7.52000000	     -0.49087438	      2.20808909	      3.45952157	      2.17104611	      1.10751702	      1.00230435	    -18.98202623	     -4.88686454	    -18.74512688	     56.89546448	      0.99301318	    -17.02020068	    -20.50309380	      0.00000000	     25.12149745	      6.28635326	      0.11467955	     19.40119625	      0.33861475	     12.03603432	      8.55583507	      0.00000000
      7.52666667	     -0.19679141	      2.44696650	      3.63540043	      2.16995636	      1.10332239	      1.00228522	    -17.81856437	     -5.04511702	    -17.76964255	     61.03368220	      1.06523871	    -16.91981033	    -21.16874564	      0.00000000	     24.94467842	      6.36830284	     -0.57611173	     20.98927946	      0.36633203	     10.78911643	      7.31231039	      0.00000000
      7.53333333	      0.10497437	      2.73122778	      3.76918930	      2.16858743	      1.09872038	      1.00239305	    -16.56276800	     -5.26124038	    -16.85677587	     65.23966297	      1.13864692	    -16.66055532	    -21.66404716	      0.00000000	     24.88857740	      6.43339752	     -1.41243881	     23.03444031	      0.40202682	      9.59173287	      6.00835102	      0.00000000
      7.54000000	      0.06282963	      2.88688478	      4.00235042	      2.16681882	      1.09328618	      1.00251986	    -14.80358784	     -5.29532934	    -16.00014001	     69.52795978	      1.21349182	    -16.14455869	    -21.98028536	      0.00000000	     25.38361481	      6.40649978	     -2.06770079	     25.58878508	      0.44660855	      8.59484180	      4.77694289	      0.00000000
      7.54666667	      0.15276088	      3.09312081	      4.23230854	      2.16474277	      1.08773838	      1.00275235	    -13.12890631	     -5.38292175	    -15.25963707	     73.76966302	      1.28752351	    -15.51389591	    -22.27001623	      0.00000000	     25.79750717	      6.38944179	     -2.71638961	     28.42051665	      0.49603159	      8.12059211	      3.76313730	      0.00000000
      7.55333333	      0.53005911	      3.52215825	      4.41004747	      2.16245835	      1.08244368	      1.00311621	    -11.74681757	     -5.72665606	    -14.63336966	     77.91848816	      1.35993417	    -14.77589298	    -22.52920336	      0.00000000	     25.79850460	      6.58918651	     -3.27951062	     31.20478878	      0.54462631	      8.12741342	      2.87671116	      0.00000000
      7.56000000	      0.62518651	      3.88238643	      4.62916125	      2.15981019	      1.07669099	      1.00344992	     -9.94186230	     -6.03382977	    -14.05145998	     82.07169760	      1.43242135	    -13.79248923	    -22.65768194	      0.00000000	     26.13573467	      6.77252281	     -3.64957559	     34.13801045	      0.59582068	      8.77499406	      2.27412733	      0.00000000
